<svg width="15" height="15" viewBox="0 0 15 15" fill="none" xmlns="http://www.w3.org/2000/svg">
<path d="M13.5539 3.49219C13.5552 3.47737 13.5552 3.46249 13.5539 3.44766C13.509 2.89041 13.2555 2.37061 12.844 1.99215C12.4325 1.6137 11.8934 1.40446 11.3343 1.40626H6.57417C6.23638 1.40649 5.90315 1.48414 5.60003 1.63325C5.29694 1.78237 5.03207 1.99897 4.82573 2.26642V2.17736C4.82512 1.97263 4.74335 1.77651 4.59836 1.63197C4.4534 1.48743 4.25702 1.40626 4.05229 1.40626H2.21714C2.01282 1.40688 1.81705 1.48832 1.67258 1.63279C1.5281 1.77727 1.44666 1.97304 1.44604 2.17736V9.10547C1.44666 9.3098 1.5281 9.50557 1.67258 9.65004C1.81705 9.79451 2.01282 9.87595 2.21714 9.87656H4.05229C4.25702 9.87659 4.4534 9.7954 4.59836 9.65086C4.74335 9.50632 4.82512 9.31019 4.82573 9.10547V9.01643C5.12877 9.408 5.55475 9.6862 6.0351 9.80625L7.57729 12.9094C7.64952 13.055 7.74988 13.1849 7.87258 13.2915C7.99528 13.3981 8.13787 13.4793 8.29213 13.5305C8.41924 13.5722 8.55213 13.5935 8.68588 13.5938C8.87702 13.5943 9.06564 13.5502 9.23667 13.4649L9.66323 13.2492C9.80899 13.1775 9.93911 13.0775 10.046 12.9551C10.153 12.8328 10.2346 12.6905 10.2862 12.5365C10.3379 12.3824 10.3585 12.2196 10.3469 12.0576C10.3353 11.8955 10.2918 11.7373 10.2187 11.5922L9.37495 9.87656H11.3414C11.9298 9.87595 12.494 9.64191 12.9101 9.2258C13.3262 8.80969 13.5603 8.2455 13.5609 7.65703V3.62344C13.5609 3.58828 13.5609 3.55312 13.5609 3.51797C13.5596 3.50913 13.5573 3.50046 13.5539 3.49219ZM4.35698 9.11721C4.35637 9.1976 4.324 9.2745 4.26691 9.33113C4.20984 9.38777 4.1327 9.41955 4.05229 9.41953H2.21714C2.13695 9.41953 2.06005 9.38768 2.00335 9.33098C1.94665 9.27429 1.91479 9.19739 1.91479 9.11721V2.17736C1.91479 2.09717 1.94665 2.02027 2.00335 1.96357C2.06005 1.90687 2.13695 1.87501 2.21714 1.87501H4.05229C4.1327 1.87501 4.20984 1.90679 4.26691 1.96342C4.324 2.02006 4.35637 2.09695 4.35698 2.17736V9.10547V9.11721ZM11.3343 9.41953H8.99057C8.97496 9.41843 8.95931 9.41843 8.9437 9.41953H8.89916C8.88885 9.42523 8.87938 9.43233 8.87104 9.44062C8.85679 9.44946 8.84345 9.45966 8.8312 9.47109C8.82255 9.48307 8.81472 9.49559 8.80776 9.50859C8.79859 9.52022 8.79074 9.53278 8.78432 9.54609C8.78301 9.56327 8.78301 9.5805 8.78432 9.59768C8.78301 9.60855 8.78301 9.61959 8.78432 9.63047C8.78214 9.64523 8.78214 9.66026 8.78432 9.675C8.78573 9.6904 8.78969 9.70547 8.79604 9.71955L9.81791 11.775C9.90874 11.9571 9.9239 12.1677 9.8601 12.361C9.82783 12.4569 9.77681 12.5454 9.71003 12.6215C9.64324 12.6975 9.562 12.7595 9.47104 12.8039L9.04448 13.0195C8.95436 13.0647 8.85613 13.0916 8.75552 13.0984C8.65492 13.1052 8.55395 13.092 8.45854 13.0594C8.36268 13.0284 8.27404 12.9783 8.19794 12.9123C8.12181 12.8463 8.0598 12.7656 8.01557 12.675L6.42182 9.47344V9.46172C6.41374 9.44831 6.40431 9.43575 6.3937 9.42422L6.32807 9.41953C6.31558 9.41112 6.30222 9.40406 6.28823 9.39844L6.25541 9.375H6.24135C5.8447 9.29494 5.48795 9.08013 5.23164 8.76698C4.97533 8.45386 4.83522 8.0617 4.8351 7.65703V3.62344C4.83571 3.16153 5.01883 2.71859 5.34456 2.39109C5.67032 2.0636 6.11228 1.8781 6.57417 1.87501H11.3343C11.7346 1.87518 12.1228 2.01252 12.4341 2.26414C12.7454 2.51576 12.9611 2.86648 13.0453 3.25781H11.2031C11.1409 3.25781 11.0813 3.28252 11.0373 3.32646C10.9934 3.37043 10.9687 3.43003 10.9687 3.49219C10.9687 3.55437 10.9934 3.61397 11.0373 3.65794C11.0813 3.70188 11.1409 3.72656 11.2031 3.72656H13.0781V5.24065H11.2031C11.1409 5.24065 11.0813 5.26533 11.0373 5.30927C10.9934 5.35324 10.9687 5.41284 10.9687 5.47502C10.9687 5.53718 10.9934 5.59678 11.0373 5.64075C11.0813 5.6847 11.1409 5.7094 11.2031 5.7094H13.0781V7.22578H11.2031C11.1409 7.22578 11.0813 7.25048 11.0373 7.29443C10.9934 7.3384 10.9687 7.398 10.9687 7.46016C10.9687 7.52234 10.9934 7.58194 11.0373 7.62591C11.0813 7.66985 11.1409 7.69455 11.2031 7.69455H13.0781C13.0683 8.15114 12.8805 8.58584 12.5547 8.9059C12.229 9.22598 11.791 9.4061 11.3343 9.40781V9.41953Z" fill="white"/>
</svg>
