<svg width="15" height="15" viewBox="0 0 15 15" fill="none" xmlns="http://www.w3.org/2000/svg">
<g clip-path="url(#clip0_1_368)">
<path d="M13.1367 5.24062H10.3969L11.1 2.78203C11.2155 2.35019 11.1585 1.89035 10.9408 1.49987C10.7232 1.1094 10.3621 0.818974 9.9341 0.690105C9.50604 0.561234 9.04465 0.604042 8.64762 0.80946C8.25059 1.01488 7.94911 1.36678 7.80703 1.79062L7.29141 3.44297C7.13466 3.94446 6.87994 4.40986 6.54199 4.81219C6.20402 5.21452 5.78958 5.54576 5.32266 5.78672V5.60156C5.32266 5.50833 5.28563 5.41889 5.2197 5.35296C5.15377 5.28703 5.06435 5.25 4.97109 5.25H0.937508C0.844269 5.25 0.754848 5.28703 0.688916 5.35296C0.622986 5.41889 0.585945 5.50833 0.585945 5.60156V14.0625C0.585636 14.1089 0.594502 14.1548 0.612031 14.1978C0.62956 14.2407 0.655407 14.2797 0.688084 14.3126C0.72076 14.3455 0.759622 14.3716 0.802428 14.3894C0.845234 14.4072 0.891144 14.4164 0.937508 14.4164H4.97109C5.06435 14.4164 5.15377 14.3794 5.2197 14.3134C5.28563 14.2475 5.32266 14.1581 5.32266 14.0648V13.8281C6.55758 14.219 7.84533 14.4175 9.14063 14.4164H13.1484C13.4872 14.4164 13.8121 14.2818 14.0517 14.0423C14.2912 13.8027 14.4258 13.4778 14.4258 13.1391V6.51797C14.4255 6.34931 14.3918 6.18239 14.3268 6.02679C14.2618 5.87119 14.1666 5.72998 14.0468 5.61129C13.9271 5.49258 13.785 5.39871 13.6288 5.3351C13.4726 5.27149 13.3054 5.23938 13.1367 5.24062ZM4.61953 13.7133H1.28907V5.94375H4.61953V13.7133ZM13.7109 13.1391C13.7109 13.2914 13.6504 13.4374 13.5428 13.5451C13.4351 13.6528 13.289 13.7133 13.1367 13.7133H9.14063C7.84659 13.7141 6.56105 13.5043 5.33438 13.0922V6.5625C5.95758 6.29686 6.51581 5.89927 6.97059 5.39714C7.42538 4.89502 7.76592 4.30029 7.96875 3.65391L8.48438 2.01328C8.57925 1.78035 8.75707 1.59083 8.98348 1.48131C9.20991 1.37178 9.46887 1.35003 9.71037 1.42024C9.95189 1.49045 10.1588 1.64765 10.2912 1.86149C10.4236 2.07532 10.4721 2.33063 10.4273 2.57812L9.59297 5.49609C9.57813 5.54834 9.5756 5.60332 9.58556 5.65671C9.59552 5.7101 9.61774 5.76047 9.65044 5.80383C9.68313 5.84721 9.72544 5.88241 9.77402 5.90667C9.82261 5.93095 9.87616 5.94366 9.93047 5.94375H13.1367C13.289 5.94375 13.4351 6.00424 13.5428 6.11194C13.6504 6.21961 13.7109 6.36567 13.7109 6.51797V13.1391Z" fill="url(#paint0_linear_1_368)"/>
</g>
<defs>
<linearGradient id="paint0_linear_1_368" x1="0.585945" y1="7.5" x2="14.4141" y2="7.5" gradientUnits="userSpaceOnUse">
<stop stop-color="#FF71E6"/>
<stop offset="0.26" stop-color="#F659E7"/>
<stop offset="0.75" stop-color="#E632E8"/>
<stop offset="1" stop-color="#E023E8"/>
</linearGradient>
<clipPath id="clip0_1_368">
<rect width="15" height="15" fill="white"/>
</clipPath>
</defs>
</svg>
