<svg width="15" height="15" viewBox="0 0 15 15" fill="none" xmlns="http://www.w3.org/2000/svg">
<g clip-path="url(#clip0_1_370)">
<path d="M12.1875 12.4805C12.0258 12.4805 11.8945 12.6117 11.8945 12.7734C11.8945 12.9352 12.0258 13.0664 12.1875 13.0664C12.3492 13.0664 12.4805 12.9352 12.4805 12.7734C12.4805 12.6117 12.3492 12.4805 12.1875 12.4805Z" fill="white"/>
<path d="M13.0664 1.38961V0.878906C13.0664 0.394277 12.6721 0 12.1875 0H2.8125C2.32787 0 1.93359 0.394277 1.93359 0.878906V1.38961C0.0226466 4.91883 8.78906e-05 4.81403 0 4.98015C0 4.98026 0 4.98035 0 4.98047V5.56641C0 6.07421 0.293613 6.54647 0.761719 6.81504V14.707C0.761719 14.8688 0.89291 15 1.05469 15H13.9453C14.1071 15 14.2383 14.8688 14.2383 14.707V6.81504C14.7017 6.54671 15 6.06888 15 5.56641V4.98047C15 4.98035 15 4.98026 15 4.98015C14.9999 4.81225 14.9587 4.8844 13.0664 1.38961ZM14.2116 4.6875H12.3987L11.4221 1.75781H12.6002L14.2116 4.6875ZM10.1367 5.27344H11.8945V5.56641C11.8945 6.05103 11.5003 6.44531 11.0156 6.44531C10.531 6.44531 10.1367 6.05103 10.1367 5.56641V5.27344ZM10.0919 4.6875L9.60366 1.75781H10.8045L11.781 4.6875H10.0919ZM2.51953 0.878906C2.51953 0.717363 2.65096 0.585938 2.8125 0.585938H12.1875C12.349 0.585938 12.4805 0.717363 12.4805 0.878906V1.17188C12.2015 1.17188 2.80066 1.17188 2.51953 1.17188V0.878906ZM9.55078 5.27344V5.56641C9.55078 6.05103 9.1565 6.44531 8.67188 6.44531C8.18725 6.44531 7.79297 6.05103 7.79297 5.56641V5.27344H9.55078ZM7.79297 4.6875V1.75781H9.00964L9.49793 4.6875H7.79297ZM5.5021 4.6875L5.99039 1.75781H7.20703V4.6875H5.5021ZM7.20703 5.27344V5.56641C7.20703 6.05103 6.81275 6.44531 6.32812 6.44531C5.8435 6.44531 5.44922 6.05103 5.44922 5.56641V5.27344H7.20703ZM3.21896 4.6875L4.19552 1.75781H5.39634L4.90805 4.6875H3.21896ZM4.86328 5.27344V5.56641C4.86328 6.05103 4.469 6.44531 3.98438 6.44531C3.49975 6.44531 3.10547 6.05103 3.10547 5.56641V5.27344H4.86328ZM2.39977 1.75781H3.57788L2.60133 4.6875H0.788438L2.39977 1.75781ZM0.585938 5.56641V5.27344H2.51953V5.56641C2.51953 6.0264 2.05872 6.44531 1.55273 6.44531C1.42518 6.44531 1.29299 6.41763 1.16994 6.36498C0.820635 6.21642 0.585938 5.89547 0.585938 5.56641ZM6.03516 14.4141H3.10547V11.8945H6.03516V14.4141ZM6.03516 11.3086H3.10547V8.78906H6.03516V11.3086ZM13.6523 14.4141H6.62109V8.49609C6.62109 8.33432 6.4899 8.20312 6.32812 8.20312H2.8125C2.65072 8.20312 2.51953 8.33432 2.51953 8.49609V14.4141H1.34766V7.01692C1.41557 7.02615 1.48397 7.03125 1.55273 7.03125C1.93831 7.03125 2.32808 6.8785 2.62201 6.61213C2.68702 6.55324 2.74556 6.49025 2.79809 6.42425C3.06451 6.79166 3.49688 7.03125 3.98438 7.03125C4.46306 7.03125 4.88877 6.80045 5.15625 6.44429C5.42373 6.80045 5.84944 7.03125 6.32812 7.03125C6.80681 7.03125 7.23252 6.80045 7.5 6.44429C7.76748 6.80045 8.19319 7.03125 8.67188 7.03125C9.15056 7.03125 9.57627 6.80045 9.84375 6.44429C10.1112 6.80045 10.5369 7.03125 11.0156 7.03125C11.5031 7.03125 11.9355 6.79166 12.2019 6.42425C12.2544 6.49025 12.313 6.55321 12.378 6.61213C12.6719 6.8785 13.0617 7.03125 13.4473 7.03125C13.5159 7.03125 13.5843 7.02633 13.6523 7.01704V14.4141ZM14.4141 5.56641C14.4141 5.90473 14.1706 6.22937 13.8084 6.37427C13.6899 6.42144 13.5684 6.44531 13.4473 6.44531C12.9413 6.44531 12.4805 6.0264 12.4805 5.56641V5.27344H14.4141V5.56641Z" fill="white"/>
<path d="M12.7734 11.3086H12.4805V8.49609C12.4805 8.33432 12.3493 8.20312 12.1875 8.20312H8.67188C8.5101 8.20312 8.37891 8.33432 8.37891 8.49609V11.3086H8.08594C7.92416 11.3086 7.79297 11.4398 7.79297 11.6016C7.79297 11.7633 7.92416 11.8945 8.08594 11.8945H12.7734C12.9352 11.8945 13.0664 11.7633 13.0664 11.6016C13.0664 11.4398 12.9352 11.3086 12.7734 11.3086ZM11.8945 11.3086H8.96484V8.78906H11.8945V11.3086Z" fill="white"/>
<path d="M11.0156 12.4805H8.67188C8.5101 12.4805 8.37891 12.6117 8.37891 12.7734C8.37891 12.9352 8.5101 13.0664 8.67188 13.0664H11.0156C11.1774 13.0664 11.3086 12.9352 11.3086 12.7734C11.3086 12.6117 11.1774 12.4805 11.0156 12.4805Z" fill="white"/>
</g>
<defs>
<clipPath id="clip0_1_370">
<rect width="15" height="15" fill="white"/>
</clipPath>
</defs>
</svg>
