<svg width="15" height="15" viewBox="0 0 15 15" fill="none" xmlns="http://www.w3.org/2000/svg">
<g clip-path="url(#clip0_1_362)">
<path d="M7.50005 0.300003C3.53015 0.300003 0.300049 3.5301 0.300049 7.5C0.300049 11.4699 3.53015 14.7 7.50005 14.7C11.4699 14.7 14.7 11.4699 14.7 7.5C14.7 3.5301 11.4699 0.300003 7.50005 0.300003ZM7.50005 14.1C3.86075 14.1 0.900049 11.1393 0.900049 7.5C0.900049 3.8607 3.86075 0.900003 7.50005 0.900003C11.1393 0.900003 14.1 3.8607 14.1 7.5C14.1 11.1393 11.1393 14.1 7.50005 14.1Z" fill="white"/>
<path d="M6.90005 3.9H8.10005C8.92715 3.9 9.60005 4.5729 9.60005 5.4H10.2C10.2 4.242 9.25775 3.3 8.10005 3.3H7.80005V2.4H7.20005V3.3H6.90005C5.74235 3.3 4.80005 4.242 4.80005 5.4V5.7C4.80005 6.858 5.74235 7.8 6.90005 7.8H8.10005C8.92715 7.8 9.60005 8.4729 9.60005 9.3V9.6C9.60005 10.4271 8.92715 11.1 8.10005 11.1H6.90005C6.07295 11.1 5.40005 10.4271 5.40005 9.6H4.80005C4.80005 10.758 5.74235 11.7 6.90005 11.7H7.20005V12.6H7.80005V11.7H8.10005C9.25775 11.7 10.2 10.758 10.2 9.6V9.3C10.2 8.142 9.25775 7.2 8.10005 7.2H6.90005C6.07295 7.2 5.40005 6.5271 5.40005 5.7V5.4C5.40005 4.5729 6.07295 3.9 6.90005 3.9Z" fill="white"/>
</g>
<defs>
<clipPath id="clip0_1_362">
<rect width="15" height="15" fill="white"/>
</clipPath>
</defs>
</svg>
